Coordinates
version=1
nRows=11
nColumns=42
inDegrees=yes

Units are S.I. units (second, meters, Newtons, ...)
Angles are in degrees.

endheader
time	pelvis_tilt	pelvis_list	pelvis_rotation	pelvis_tx	pelvis_ty	pelvis_tz	hip_flexion_r	hip_adduction_r	hip_rotation_r	knee_angle_r	ankle_angle_r	subtalar_angle_r	mtp_angle_r	hip_flexion_l	hip_adduction_l	hip_rotation_l	knee_angle_l	ankle_angle_l	subtalar_angle_l	mtp_angle_l	lumbar_extension	lumbar_bending	lumbar_rotation	arm_flex_r	arm_add_r	arm_rot_r	elbow_flex_r	pro_sup_r	wrist_flex_r	wrist_dev_r	arm_flex_l	arm_add_l	arm_rot_l	elbow_flex_l	pro_sup_l	wrist_flex_l	wrist_dev_l	scapula_weld_r	clavicle_weld_r	scapula_weld_l	clavicle_weld_l
      1.22000000	     -7.14098982	      3.41802328	      5.91977839	      0.09135803	      0.88619969	     -0.07116406	      5.48840674	    -16.45450568	    -17.63982407	    -57.06114044	     -6.88823284	      0.00000000	      0.00000000	     39.05984367	      1.73237559	    -13.79699833	    -37.04344807	      4.80672730	      0.00000000	      0.00000000	      0.00000000	      0.00000000	      0.00000000	      0.00000000	    -10.84415846	      0.00000000	     75.34018992	     44.96828680	      0.00000000	      0.00000000	      0.00000000	    -10.84415846	      0.00000000	     75.34018992	     44.96828680	      0.00000000	      0.00000000	      0.00000000	      0.00000000	      0.00000000	      0.00000000
      1.23000000	     -7.38849460	      4.20449838	      5.83981701	      0.10451755	      0.88868304	     -0.07410498	      7.44690608	    -17.74581104	    -16.66854498	    -59.71111684	     -7.26773757	      0.00000000	      0.00000000	     37.98070527	      2.60653280	    -14.32610045	    -36.59929593	      5.83450107	      0.00000000	      0.00000000	      0.00000000	      0.00000000	      0.00000000	      0.00000000	    -10.85145628	      0.00000000	     75.33902262	     44.96858820	      0.00000000	      0.00000000	      0.00000000	    -10.85145628	      0.00000000	     75.33902262	     44.96858820	      0.00000000	      0.00000000	      0.00000000	      0.00000000	      0.00000000	      0.00000000
      1.24000000	     -7.78806151	      4.87373235	      5.79734929	      0.11702017	      0.89122568	     -0.07684907	      9.75131863	    -18.81598350	    -15.62718880	    -62.26730994	     -6.92621938	      0.00000000	      0.00000000	     36.91453268	      3.39233252	    -14.91741901	    -35.72947867	      6.50999248	      0.00000000	      0.00000000	      0.00000000	      0.00000000	      0.00000000	      0.00000000	    -10.85855659	      0.00000000	     75.33788873	     44.96887926	      0.00000000	      0.00000000	      0.00000000	    -10.85855659	      0.00000000	     75.33788873	     44.96887926	      0.00000000	      0.00000000	      0.00000000	      0.00000000	      0.00000000	      0.00000000
      1.25000000	     -8.28229439	      5.42129632	      5.80438444	      0.12914811	      0.89385561	     -0.07942063	     12.24627311	    -19.65805512	    -14.61534304	    -64.61432328	     -6.02270498	      0.00000000	      0.00000000	     35.86267872	      4.10440040	    -15.46261934	    -34.57263679	      6.97429480	      0.00000000	      0.00000000	      0.00000000	      0.00000000	      0.00000000	      0.00000000	    -10.86430840	      0.00000000	     75.33697159	     44.96911340	      0.00000000	      0.00000000	      0.00000000	    -10.86430840	      0.00000000	     75.33697159	     44.96911340	      0.00000000	      0.00000000	      0.00000000	      0.00000000	      0.00000000	      0.00000000
      1.26000000	     -8.85337356	      5.89522661	      5.80730867	      0.14104174	      0.89657150	     -0.08182847	     14.88297919	    -20.34668492	    -13.63430773	    -66.70282529	     -4.91896081	      0.00000000	      0.00000000	     34.83004848	      4.76819529	    -15.95798086	    -33.17916864	      7.09543731	      0.00000000	      0.00000000	      0.00000000	      0.00000000	      0.00000000	      0.00000000	    -10.87073226	      0.00000000	     75.33594868	     44.96937324	      0.00000000	      0.00000000	      0.00000000	    -10.87073226	      0.00000000	     75.33594868	     44.96937324	      0.00000000	      0.00000000	      0.00000000	      0.00000000	      0.00000000	      0.00000000
      1.27000000	     -9.34765074	      6.26058284	      5.80571869	      0.15299641	      0.89940315	     -0.08409580	     17.41282288	    -20.83163105	    -12.76741078	    -68.45190190	     -3.67583960	      0.00000000	      0.00000000	     33.73160907	      5.34583884	    -16.30614169	    -31.76820157	      7.17462807	      0.00000000	      0.00000000	      0.00000000	      0.00000000	      0.00000000	      0.00000000	    -10.87737541	      0.00000000	     75.33489247	     44.96964004	      0.00000000	      0.00000000	      0.00000000	    -10.87737541	      0.00000000	     75.33489247	     44.96964004	      0.00000000	      0.00000000	      0.00000000	      0.00000000	      0.00000000	      0.00000000
      1.28000000	     -9.73770277	      6.57508903	      5.80264526	      0.16505588	      0.90230428	     -0.08623760	     19.77736222	    -21.19072236	    -12.01679552	    -69.87100160	     -2.41431902	      0.00000000	      0.00000000	     32.57014206	      5.87401868	    -16.56057043	    -30.43199387	      7.24430620	      0.00000000	      0.00000000	      0.00000000	      0.00000000	      0.00000000	      0.00000000	    -10.88407435	      0.00000000	     75.33382901	     44.96990718	      0.00000000	      0.00000000	      0.00000000	    -10.88407435	      0.00000000	     75.33382901	     44.96990718	      0.00000000	      0.00000000	      0.00000000	      0.00000000	      0.00000000	      0.00000000
      1.29000000	    -10.00550872	      6.82172751	      5.79412990	      0.17728197	      0.90528704	     -0.08826047	     21.92488524	    -21.41224873	    -11.40253610	    -70.92883741	     -1.26761031	      0.00000000	      0.00000000	     31.32594310	      6.34189876	    -16.66944251	    -29.19673880	      7.34569798	      0.00000000	      0.00000000	      0.00000000	      0.00000000	      0.00000000	      0.00000000	    -10.89131276	      0.00000000	     75.33268185	     44.97019357	      0.00000000	      0.00000000	      0.00000000	    -10.89131276	      0.00000000	     75.33268185	     44.97019357	      0.00000000	      0.00000000	      0.00000000	      0.00000000	      0.00000000	      0.00000000
      1.30000000	    -10.15785019	      6.97594762	      5.82460199	      0.18963659	      0.90825966	     -0.09014964	     23.83122143	    -21.48173121	    -10.96549562	    -71.64062946	     -0.18281602	      0.00000000	      0.00000000	     30.02258747	      6.72366038	    -16.64465527	    -28.10066451	      7.52864946	      0.00000000	      0.00000000	      0.00000000	      0.00000000	      0.00000000	      0.00000000	    -10.89711666	      0.00000000	     75.33176338	     44.97042165	      0.00000000	      0.00000000	      0.00000000	    -10.89711666	      0.00000000	     75.33176338	     44.97042165	      0.00000000	      0.00000000	      0.00000000	      0.00000000	      0.00000000	      0.00000000
      1.31000000	    -10.25676587	      7.11054192	      5.89332754	      0.20205748	      0.91113321	     -0.09196527	     25.58010078	    -21.50954593	    -10.66725396	    -72.03251959	      0.70185369	      0.00000000	      0.00000000	     28.67133461	      7.10042125	    -16.53612827	    -27.03666545	      7.70679335	      0.00000000	      0.00000000	      0.00000000	      0.00000000	      0.00000000	      0.00000000	    -10.90326141	      0.00000000	     75.33079233	     44.97066157	      0.00000000	      0.00000000	      0.00000000	    -10.90326141	      0.00000000	     75.33079233	     44.97066157	      0.00000000	      0.00000000	      0.00000000	      0.00000000	      0.00000000	      0.00000000
      1.32000000	    -10.30319782	      7.23506906	      6.04079432	      0.21449617	      0.91390969	     -0.09372053	     27.16399540	    -21.51891140	    -10.51416376	    -72.12643515	      1.42456038	      0.00000000	      0.00000000	     27.24424417	      7.49645495	    -16.33476631	    -25.93402232	      7.84515083	      0.00000000	      0.00000000	      0.00000000	      0.00000000	      0.00000000	      0.00000000	    -10.91221364	      0.00000000	     75.32938017	     44.97100816	      0.00000000	      0.00000000	      0.00000000	    -10.91221364	      0.00000000	     75.32938017	     44.97100816	      0.00000000	      0.00000000	      0.00000000	      0.00000000	      0.00000000	      0.00000000
